<svg xmlns="http://www.w3.org/2000/svg" width="40" height="10"><path data-name="Завитушка 2" d="M5.585 4.12c-1.675 0-3.391 1.12-3.391 2.49a1.649 1.649 0 00.728 1.43c.261.19.261.47-.042.77a2.067 2.067 0 01-1.4.64 1.544 1.544 0 01-1.469-1.6 4.089 4.089 0 012.06-2.99 8.807 8.807 0 014.915-1.73 13.984 13.984 0 018.621-3.14 16.111 16.111 0 015.409 1.07c.934.33 4.558 1.73 7.125 2.77a20.77 20.77 0 006.6 1.65c1.277 0 3.117-.42 3.117-1.87a1.306 1.306 0 00-.55-1.12.741.741 0 01-.315-.52A1.446 1.446 0 0138.42.63a1.633 1.633 0 011.565 1.65c0 1.93-2.278 3.24-3.816 3.82-2.828 2.79-5.684 3.91-8.457 3.91a20.3 20.3 0 01-6.561-1.38c-1.951-.66-8.073-2.97-10.531-3.7a16.88 16.88 0 00-5.011-.81h-.027zm7.894-3.07a5.555 5.555 0 00-4.544 2.17 17.617 17.617 0 015.368 1.13c2.676.84 7.619 2.8 9.348 3.34a19.323 19.323 0 005.588 1.07c2.046 0 3.872-.62 4.833-2.22a13.215 13.215 0 01-6.357-1.01c-2.032-.72-7.633-3.1-9.527-3.7a15.84 15.84 0 00-4.681-.78h-.028z" fill="#fff" fill-rule="evenodd"/></svg>