<svg xmlns="http://www.w3.org/2000/svg" width="15" height="8"><path d="M14.36 6.48a19.445 19.445 0 00-1.47-1.4.673.673 0 01-.12-1.12c.4-.52.82-1.02 1.22-1.54a5.687 5.687 0 00.94-1.54c.12-.37.01-.54-.39-.6a1.477 1.477 0 00-.21-.01h-2.37a.527.527 0 00-.56.36c-.14.33-.28.66-.45.98a8.117 8.117 0 01-1.39 2.01.486.486 0 01-.49.23.766.766 0 01-.35-.66V.6a.556.556 0 00-.53-.6H5.73a.8.8 0 00-.67.31c-.1.11-.14.19.07.22a.806.806 0 01.7.71 7.242 7.242 0 01.04 1.86 1.644 1.644 0 01-.13.54.334.334 0 01-.56.15 2.093 2.093 0 01-.55-.56A12.536 12.536 0 013.18.69a.639.639 0 00-.59-.42C1.88.26 1.17.26.45.27.03.28-.1.48.07.84A24.691 24.691 0 002.84 5.5a6.68 6.68 0 002.1 1.85 5.8 5.8 0 003.12.64.569.569 0 00.7-.64 1.917 1.917 0 01.23-.96.459.459 0 01.72-.16 1.8 1.8 0 01.4.33c.29.29.57.6.87.89a1.728 1.728 0 001.39.54h2.18a.507.507 0 00.33-.8 4.048 4.048 0 00-.52-.71z" fill="#fff" fill-rule="evenodd"/></svg>